<svg width="3rem" height="3rem" viewBox="0 0 43 43" fill="none" xmlns="http://www.w3.org/2000/svg">
<path d="M29.7458 2.09787L30.881 6.85666L35.6549 5.78652L35.1835 10.6561L40.0461 11.194L38.0191 15.6466L42.4436 17.7343L39.0807 21.2875L42.5876 24.6987L38.2531 26.9674L40.4624 31.3325L35.6261 32.0709L36.2984 36.9168L31.4844 36.0449L30.5468 40.8465L26.2767 38.4587L23.8308 42.6957L20.5675 39.0508L16.8783 42.2641L14.9753 37.7571L10.4427 39.5983L10.1062 34.7176L5.22129 34.9874L6.48779 30.2619L1.77999 28.9309L4.51225 24.8726L0.491684 22.0852L4.39363 19.134L1.49599 15.1921L6.14477 13.6677L4.68407 8.99854L9.57592 9.06624L9.71044 4.17576L14.3153 5.82818L16.0304 1.24636L19.8492 4.30442L22.9592 0.527768L25.5781 4.6601L29.7458 2.09787Z" fill="#DB2B38"/>
</svg>
